<svg width="47" height="41" viewBox="0 0 47 41" fill="none" xmlns="http://www.w3.org/2000/svg">
<g filter="url(#filter0_d_30_215)">
<path fill-rule="evenodd" clip-rule="evenodd" d="M38.125 2.1875H13.75C11.0578 2.1875 8.875 4.14641 8.875 6.5625V10.9375H11.3125V6.5625C11.3125 5.355 12.4045 4.375 13.75 4.375H38.125C39.4705 4.375 40.5625 5.355 40.5625 6.5625V28.4375C40.5625 29.645 39.4705 30.625 38.125 30.625H13.75C12.4045 30.625 11.3125 29.645 11.3125 28.4375V24.0625H8.875V28.4375C8.875 30.8536 11.0578 32.8125 13.75 32.8125H38.125C40.8172 32.8125 43 30.8536 43 28.4375V6.5625C43 4.14641 40.8172 2.1875 38.125 2.1875ZM25.1368 24.3283C24.6615 24.7548 24.6615 25.4483 25.1368 25.8748C25.6121 26.3025 26.3848 26.3025 26.8613 25.8748L35.2695 18.3291C35.523 18.1005 35.6314 17.7975 35.6144 17.5C35.6314 17.2025 35.523 16.8995 35.2695 16.672L26.8613 9.12624C26.3848 8.69859 25.6121 8.69859 25.1368 9.12624C24.6615 9.55171 24.6615 10.2452 25.1368 10.6728L31.5267 16.4062H5.21875C4.54478 16.4062 4 16.8962 4 17.5C4 18.1048 4.54478 18.5938 5.21875 18.5938H31.5267L25.1368 24.3283Z" fill="white"/>
</g>
<defs>
<filter id="filter0_d_30_215" x="0" y="0" width="47" height="43" filterUnits="userSpaceOnUse" color-interpolation-filters="sRGB">
<feFlood flood-opacity="0" result="BackgroundImageFix"/>
<feColorMatrix in="SourceAlpha" type="matrix" values="0 0 0 0 0 0 0 0 0 0 0 0 0 0 0 0 0 0 127 0" result="hardAlpha"/>
<feOffset dy="4"/>
<feGaussianBlur stdDeviation="2"/>
<feComposite in2="hardAlpha" operator="out"/>
<feColorMatrix type="matrix" values="0 0 0 0 0 0 0 0 0 0 0 0 0 0 0 0 0 0 0.25 0"/>
<feBlend mode="normal" in2="BackgroundImageFix" result="effect1_dropShadow_30_215"/>
<feBlend mode="normal" in="SourceGraphic" in2="effect1_dropShadow_30_215" result="shape"/>
</filter>
</defs>
</svg>
